<?xml version="1.0" encoding="utf-8"?>
<!-- Generator: Adobe Illustrator 24.3.0, SVG Export Plug-In . SVG Version: 6.00 Build 0)  -->
<svg version="1.0" id="katman_1" xmlns="http://www.w3.org/2000/svg" xmlns:xlink="http://www.w3.org/1999/xlink" x="0px" y="0px"
	 viewBox="0 0 608 432" style="enable-background:new 0 0 608 432;" xml:space="preserve">
<style type="text/css">
	.st0{fill:#FFFFFF;}
	.st1{fill:#43B02A;}
</style>
<g>
	<path class="st0" d="M62.62,214.9c4.76-2.74,9.05-3.21,10.59-3.33c0.24-1.79,0.6-3.45,1.07-5.12c-1.55-1.19-4.52-3.57-7.26-7.14
		c4.4-0.36,8.21,0.24,10.12,0.6c0.95-1.67,2.14-3.21,3.57-4.76c-0.83-1.43-2.38-4.29-3.33-8.21c3.57,1.55,6.19,3.45,7.5,4.52
		c1.79-1.31,3.69-2.38,5.59-3.33c0-1.67,0-4.64,0.71-8.21c2.5,2.62,4.05,5.12,4.64,6.43c2.38-0.48,4.88-0.71,7.5-0.6
		c0.48-1.31,1.43-3.57,3.09-6.31c1.19,3.09,1.67,5.59,1.9,6.9c2.62,0.6,5.12,1.43,7.5,2.62c3.81-3.21,7.38-4.64,11.55-5.71
		c0-5.24-0.71-10.36-3.45-15.47c-2.74-1.31-5.71-2.26-8.69-2.98c-3.09,1.67-5.59,3.57-7.74,5.59c-1.55-2.38-3.57-4.88-6.07-7.14
		c-1.19,0-3.45-0.12-7.86,0.6c-2.14,2.74-3.69,5.48-4.88,8.21c-2.62-1.67-5.83-3.09-9.52-4.05c-2.14,0.95-4.17,2.02-6.19,3.21
		c-0.71,3.45-0.95,6.67-0.83,9.64c-3.09-0.6-6.67-0.83-10.48-0.36c-1.31,1.43-2.62,2.98-3.81,4.64c0.24,4.29,1.31,7.98,2.86,11.19
		c-3.57,0.83-7.26,2.38-10.71,4.76c-0.48,1.55-0.83,3.21-1.19,4.76c2.14,3.69,4.88,6.67,7.62,8.93c-2.74,2.26-5.48,5.36-7.98,9.52
		c0.24,1.79,0.6,3.45,1.07,5.12h0.12c2.86-5.95,6.31-9.88,9.64-12.5c6.79,4.64,13.45,5.95,14.4,6.07c-0.12-1.07-0.36-2.14-0.48-3.57
		C71.19,218.95,67.02,217.64,62.62,214.9z M121.9,179.31c-2.14,0.83-5.48,2.38-8.69,5c-0.48-2.26-1.31-5.59-3.09-9.4
		c2.14-2.14,4.88-4.29,8.33-6.07C120.83,172.4,121.66,176.81,121.9,179.31z M104.16,174.31c-2.5,3.21-4.05,6.31-4.88,8.45
		c-1.19-2.14-3.33-5-6.55-7.86c1.07-2.74,2.62-5.71,4.88-8.45C100.47,168.83,102.62,171.69,104.16,174.31z M87.38,176.57
		c-1.19,4.17-1.43,7.86-1.43,10.24c-2.14-1.55-5.24-3.45-9.28-4.76c-0.36-2.86-0.24-6.19,0.6-9.76
		C81.43,173.12,84.64,174.67,87.38,176.57z M76.43,195.85c-2.74-0.48-6.9-0.83-11.55-0.24c-1.55-2.98-2.74-6.67-2.98-10.83
		c4.05-0.48,7.74-0.12,10.95,0.6C73.69,190.02,75.24,193.59,76.43,195.85z M62.74,199.9c2.5,3.93,5.59,6.79,7.74,8.57
		c-2.74,0.48-6.79,1.55-11.07,4.29c-2.62-2.02-5.24-4.76-7.38-8.33C55.48,201.93,59.29,200.62,62.74,199.9z"/>
	<path class="st1" d="M100.14,163.11l1.01,0.01l0.07,0l0.32,0c5,0,9.51,0.5,13.84,1.55l0.32,0.08l-0.04,0.02l0.34,0.09
		c2.94,0.75,5.6,1.67,8.03,2.86l0.02,0.05l0.51,0.27c0.28,0.15,0.62,0.34,1,0.56l0.58,0.33c2.52,1.45,5.07,3.04,7.38,4.7l0.55,0.4
		c1.38,1.01,2.59,2,3.61,2.94c2.15,1.64,2.51,5.07,0.62,7.08l-0.17,0.21c-0.58,0.67-2.13,2.31-3.89,4.11l-0.98,0.99l-0.89,0.9
		l-1.34,1.33c-1.49,1.46-2.56,2.44-3.01,2.74c-2.27,1.08-4.03,0.71-6.1-1.02l-0.22-0.19c-1.83-1.59-3.73-2.87-5.81-3.91l-0.02-0.13
		l-0.1,0.01c-2.22-1.11-4.61-1.94-7.27-2.56l-0.08,0.07c-1.66-0.36-3.32-0.59-4.98-0.71l-0.04-0.05l-0.08,0.05
		c-2.45-0.11-4.88,0.09-7.34,0.57l-0.01,0.03c-1.28,0.25-2.54,0.61-3.68,1.04l-0.33,0.13c-0.65,0.26-1.19,0.51-1.28,0.58l-0.1-0.04
		l-0.04,0.07c-2.17,1.08-3.96,2.14-5.58,3.32l-0.15,0l-0.22,0.17c-0.82,0.65-1.55,1.3-2.35,2.07l-1.12,1.1l-0.18,0.16
		c-0.04,0.03-0.07,0.05-0.09,0.07c-0.01,0.01-0.03,0.02-0.04,0.02l-0.01,0.08c-1.45,1.57-2.59,3.07-3.49,4.63l0.05,0.11l-0.15,0.25
		c-1.36,2.36-2.55,5.33-2.69,6.14l-0.01,0.1l-0.12,0.06l-0.19,0.7c-0.38,1.45-0.67,2.88-0.87,4.37l-0.06,0.06l0.06,0.06
		c-0.35,2.45-0.36,5.12-0.02,7.69l0.02,0.02c0.04,0.44,0.08,0.84,0.15,1.31l0.22,1.44c0.05,0.31,0.08,0.56,0.11,0.8
		c0.05,0.01,0.09,0.01,0.13,0.02l0.11,0.09c5.21,20.95,29.96,29.06,47.18,15.53c2.75-2.12,4.68-2.53,6.67-1.49
		c1,0.52,1.98,1.36,3.5,2.92l2.55,2.68c0.86,0.89,1.62,1.67,2.41,2.43l0.4,0.38c0.04,0.04,0.91,0.95,1.2,1.27
		c2.22,2.51,2.55,4.87-0.13,7.71c-11.83,12.41-30.9,17.02-49.19,12.55c-19.04-4.66-33.89-18.21-38.99-37.48l0.04-0.05l-0.03,0.02
		h-0.12l-0.12-0.09c-0.49-1.71-0.84-3.39-1.06-5.22l0.25-0.41l-0.02-0.16c-0.85-5.84-0.76-11.9,0.31-17.51l-0.2-0.34l0.5-2.17
		l0.05-0.22c0.22-0.92,0.42-1.68,0.69-2.45l0.11-0.08l0.18-0.58c1.59-5.05,4.06-10.04,7.2-14.62l0.34-0.49l-0.01-0.16
		c1.1-1.54,2.35-3.06,3.9-4.69l0.33-0.04l0.27-0.29c0.6-0.63,1.2-1.23,1.81-1.81l0.62-0.57c2.29-2.15,4.8-4.1,7.5-5.82l0.63-0.39
		l0.05-0.27l0.06-0.08c2.14-1.26,4.16-2.31,6.28-3.23l0.28,0.07l0.36-0.16c3.93-1.69,8.07-2.94,12.33-3.71l0.85-0.15l0.41-0.07
		l0.12-0.16C96.24,163.27,98.25,163.11,100.14,163.11z M58.21,217.98l-0.06,0.05c-2.98,2.62-5.61,6.01-7.82,10.3l-0.29,0.57
		l-0.25,0.52l0.02,0l0.25-0.51C52.36,224.36,55.15,220.7,58.21,217.98z M100.58,163.36h-0.44c-1.82,0.01-3.76,0.16-6.24,0.52
		l-0.12,0.15c-2.02,2.58-3.59,5.26-4.86,8.19l-0.18,0.06c-2.65-1.69-5.56-2.98-8.86-3.87l-0.5-0.14l-0.04,0.02
		c-1.98,0.88-3.9,1.88-5.75,2.98l-0.41,0.25l-0.1,0.53c-0.54,2.82-0.77,5.56-0.72,8.21l0.02,0.72l-0.15,0.13
		c-3.17-0.61-6.48-0.78-9.81-0.43l-0.47,0.05l-0.11,0.12c-1.07,1.18-2.12,2.44-3.14,3.73l-0.35,0.46l-0.25,0.36l0.04,0.62
		c0.29,3.48,1.15,6.69,2.52,9.71l0.26,0.56l-0.08,0.18c-3.63,0.85-7.18,2.42-10.67,4.74l-0.11,0.07l-0.07,0.23
		c-0.15,0.5-0.29,1.03-0.43,1.62l-0.14,0.6l-0.33,1.41c-0.06,0.27-0.14,0.58-0.18,0.67l0.03,0.05l0.04-0.22l0.17,0.29
		c1.99,3.42,4.6,6.42,7.59,8.89l0,0.19c-3.21,2.68-5.76,5.69-7.83,9.49l-0.18,0.32l-0.06-0.36l-0.04-0.27
		c-0.02,0.04-0.05,0.08-0.07,0.11c0.2,1.49,0.48,2.92,0.87,4.37l0.16,0.57l0.21-0.44c2.48-4.98,5.52-8.81,8.99-11.64l0.4-0.32
		l0.15,0l0.18,0.12l0.06,0c1.5,1.03,3.05,1.93,4.63,2.72c1.49,0.73,2.99,1.35,4.5,1.88c1.88,0.66,3.65,1.11,4.66,1.28l0.17,0.03
		l-0.1-0.71l-0.12-0.77c-0.08-0.54-0.14-0.98-0.19-1.41l-0.03-0.31L73,219.62c-3.09-0.76-6.86-2.27-10.44-4.49l0-0.12l0-0.22
		c3.65-2.1,7.05-3.02,10.23-3.31l0.31-0.03l0.09-0.65c0.15-0.99,0.35-1.96,0.58-2.93l0.18-0.73l0.18-0.65l-0.45-0.35l-0.35-0.28
		c-1.4-1.03-2.88-2.37-4.27-3.94c-0.59-0.63-1.16-1.3-1.73-2.02l-0.42-0.54l0.09-0.2c0.96-0.08,1.89-0.11,2.81-0.12
		c2.52-0.01,4.91,0.25,7.26,0.68l0.2-0.34c0.79-1.31,1.75-2.59,2.93-3.91l0.34-0.37l-0.22-0.38c-1.22-2.16-2.21-4.44-2.93-7.19
		l-0.15-0.6l-0.06-0.24l0.14,0.06l0.09-0.08c3.04,1.27,5.36,2.77,7.53,4.54l0,0l0.3-0.21c1.21-0.85,2.52-1.64,4.01-2.43l0.57-0.3
		l0.52-0.26l0-0.35c0.01-2.56,0.15-4.71,0.59-7.14l0.13-0.67l0.21-0.06l0.02,0.02l0.09-0.03c1.98,1.98,3.2,3.78,4.61,6.35l0.49-0.09
		c1.83-0.33,3.65-0.5,5.47-0.5l0.68,0.01l0.59,0.02l0.12-0.32c0.62-1.62,1.5-3.47,2.66-5.44l0.43-0.71l0.09,0.22l0.12,0.01
		c1.06,2.75,1.73,5.25,1.9,6.87l0.48,0.11c2.26,0.55,4.33,1.27,6.27,2.19l0.5,0.24l0.31-0.26c3.22-2.63,6.37-4.13,10.72-5.3
		l0.41-0.11l0-0.52c0-0.4-0.01-0.8-0.03-1.19c-0.35-2.89-1.28-6.75-2.49-10.89l-0.38-1.28l-0.38-1.2l-0.1-0.19
		c-2.53-1.21-5.39-2.18-8.49-2.96l0.04-0.02c-2.9,1.56-5.4,3.4-7.71,5.58l-0.11-0.01c0,0-0.01,0.01-0.01,0.01l-0.19-0.02
		c-1.67-2.57-3.71-5-5.97-7.09L100.58,163.36z M62.83,199.78l0.13,0.06c1.97,3.1,4.36,5.68,7.18,8.09l0.75,0.63l-0.28,0.04
		l-0.44,0.06l0.32-0.06c-1.58,0.28-3.15,0.67-4.71,1.2c-2.03,0.73-4.13,1.75-6.19,3.06l-0.11,0l-0.15,0
		c-2.87-2.22-5.4-5.02-7.41-8.37l0.03-0.17c3.13-2.26,6.73-3.71,10.76-4.54l0.04,0.02C62.78,199.79,62.81,199.78,62.83,199.78z
		 M72.88,185.26l0.1,0.1c0.67,3.73,1.83,7.02,3.28,9.9l0.39,0.76L76.53,196l0.01,0.02l-0.25-0.04c-3.54-0.62-7.41-0.73-11.51-0.12
		l-0.13-0.07c-1.74-3.48-2.77-7.04-2.99-10.88l0.11-0.13l0.02,0l0.1-0.12C65.63,184.22,69.29,184.46,72.88,185.26z M77.29,172.16
		c3.89,0.78,7.14,2.2,10.16,4.31l0.05,0.14c-1.01,3.54-1.42,6.98-1.42,10.2l-0.2,0.1l-0.05-0.04l-0.07,0.04
		c-2.78-2.01-5.77-3.62-9.25-4.74l-0.09-0.11c-0.22-2.61-0.12-5.3,0.35-8.01c0.01-0.08,0.03-0.15,0.04-0.22l-0.04,0.22
		c0.03-0.17,0.06-0.34,0.09-0.51c0.03-0.18,0.07-0.36,0.11-0.55c0.01-0.04,0.01-0.07,0.02-0.11c0.04-0.21,0.09-0.42,0.14-0.63
		L77.29,172.16z M113.29,184.41l-0.2-0.07l0,0l-0.01-0.06l-0.14-0.62c-0.73-3.15-1.57-5.78-2.93-8.69l0.02-0.14
		c2.33-2.46,5.11-4.52,8.35-6.09c0,0,0.01,0,0.01-0.01l0.08,0.02l0.08,0.02c2.01,3.02,3.13,6.89,3.47,10.53l-0.02,0.04l-0.05,0.09
		c-3.01,1.24-5.88,2.8-8.64,4.96C113.3,184.39,113.3,184.4,113.29,184.41L113.29,184.41z M97.7,166.36
		c2.71,2.26,4.91,4.94,6.58,7.89l-0.01,0.13l0,0.01c-2.18,2.81-3.83,5.77-4.86,8.42l-0.05,0.12l-0.04,0.11l0,0.01l-0.13-0.23
		l-0.01-0.02l-0.3-0.48c-1.68-2.65-3.63-5.01-6.21-7.21l-0.04-0.14l0.02-0.05l-0.02-0.07c1.22-3.12,2.83-5.98,4.9-8.49L97.7,166.36z
		"/>
	<path class="st0" d="M102.5,252.16c9.05,0,17.26-3.21,23.69-8.69c0.48-0.24,4.88,4.76,6.67,6.67c0.36,0.48,0.36,0.6,0.36,0.6
		c-21.66,18.93-58.45,16.19-75.83-16.55c1.43-4.76,3.45-7.62,3.45-7.62c4.64,1.9,8.09,2.02,8.09,2.02
		C72.74,238.71,86.07,252.16,102.5,252.16z"/>
	<path class="st1" d="M198.56,163.12c29.28,0,52.61,23.57,52.61,52.73s-23.45,52.5-52.61,52.5s-52.5-23.21-52.5-52.5
		c0-28.99,22.75-52.26,51.62-52.73L198.56,163.12z M198.56,249.42c18.45,0,33.69-15.12,33.69-33.45s-15.24-33.81-33.69-33.81
		s-33.45,15.36-33.45,33.81c0,18.27,14.7,33.15,32.9,33.44L198.56,249.42z M267.01,165.74c0-1.43,1.31-2.62,2.74-2.62h3.69
		l60.83,64.64h0.12V167.4c0-1.43,1.19-2.74,2.74-2.74h13.45c1.43,0,2.74,1.31,2.74,2.74v98.44c0,1.43-1.31,2.62-2.74,2.62h-3.45
		l-61.18-67.14h-0.12v62.85c0,1.43-1.19,2.74-2.74,2.74h-13.33c-1.43,0-2.74-1.31-2.74-2.74V165.74z M413.3,164.67
		c28.21,0,51.3,22.97,51.3,51.07c0,28.33-23.09,51.3-51.3,51.3h-34.64c-1.43,0-2.62-1.31-2.62-2.74v-96.9
		c0-1.43,1.19-2.74,2.62-2.74H413.3z M512.22,163c1.43,0,2.02,0.71,2.5,1.67l45,98.44c0.83,1.9-0.24,3.81-2.5,3.81h-12.74
		c-2.14,0-3.21-0.83-4.29-2.98l-7.14-15.83h-43.69l-7.14,15.83c-0.6,1.43-1.9,2.98-4.29,2.98H465.2c-2.02,0-3.21-1.9-2.38-3.81
		l45.47-98.44c0.48-0.83,1.19-1.67,2.5-1.67H512.22z M411.64,182.28h-16.67v66.78h16.67c19.05,0,32.85-14.28,32.85-33.45
		C444.49,196.57,430.56,182.28,411.64,182.28z M511.39,199.9h-0.48l-14.28,32.14h29.4L511.39,199.9z"/>
</g>
</svg>
